<svg width="143" height="47" viewBox="0 0 143 47" fill="none" xmlns="http://www.w3.org/2000/svg">
<rect x="0.685791" y="0.0429688" width="142.323" height="46.5543" rx="23.2771" fill="#080809"/>
<g clip-path="url(#clip0_302_1925)">
<path d="M38.6038 22.6569L25.2447 35.5208C24.6191 35.0933 24.2477 34.3821 24.2542 33.6244V11.6893C24.2477 10.9316 24.6191 10.2205 25.2447 9.79297L38.6038 22.6569Z" fill="#2196F3"/>
<path d="M43.2782 18.1647L38.6037 22.6581L25.2446 9.79414C25.295 9.75513 25.3474 9.71884 25.4016 9.68543C26.1077 9.2575 26.9896 9.24369 27.7087 9.64919L43.2782 18.1647Z" fill="#4CAF50"/>
<path d="M48.9434 22.6593C48.9522 23.5147 48.4874 24.3047 47.7356 24.7127L43.2785 27.1526L38.604 22.6593L43.2785 18.166L47.7356 20.6059C48.4874 21.0139 48.9522 21.804 48.9434 22.6593Z" fill="#F0BB1F"/>
<path d="M43.2782 27.1515L27.7087 35.6671C26.988 36.0663 26.1094 36.0525 25.4016 35.6308C25.3474 35.5974 25.295 35.5611 25.2446 35.5221L38.6038 22.6582L43.2782 27.1515Z" fill="#F15A2B"/>
</g>
<path d="M64.5633 15.8442H60.8283V17.3339H62.8182C62.5522 18.0468 61.9031 18.4831 60.9134 18.4831C59.4663 18.4831 58.5724 17.5574 58.5724 16.2911C58.5724 14.9822 59.5088 14.0565 60.7645 14.0565C61.6051 14.0565 62.2755 14.4396 62.5841 14.929L64.0312 14.099C63.4034 13.0988 62.201 12.3965 60.7751 12.3965C58.5831 12.3965 56.8699 14.1203 56.8699 16.2804C56.8699 18.4193 58.5511 20.1431 60.8922 20.1431C62.9778 20.1431 64.5633 18.7598 64.5633 16.4826V15.8442Z" fill="white"/>
<path d="M66.6937 18.3554V17.0359H69.3539V15.4185H66.6937V14.1842H69.6199V12.5455H64.9911V19.9941H69.6731V18.3554H66.6937Z" fill="white"/>
<path d="M75.1029 12.5455H69.5696V14.1842H71.485V19.9941H73.1876V14.1842H75.1029V12.5455Z" fill="white"/>
<path d="M77.4444 12.5455V19.9941H79.1469V12.5455H77.4444Z" fill="white"/>
<path d="M84.8959 12.5455H79.3626V14.1842H81.278V19.9941H82.9806V14.1842H84.8959V12.5455Z" fill="white"/>
<path d="M90.7915 20.1431C92.9303 20.1431 94.6648 18.4618 94.6648 16.2698C94.6648 14.0778 92.9303 12.3965 90.7915 12.3965C88.6526 12.3965 86.9181 14.0778 86.9181 16.2698C86.9181 18.4618 88.6526 20.1431 90.7915 20.1431ZM90.7915 18.4831C89.5784 18.4831 88.6207 17.5999 88.6207 16.2698C88.6207 14.9397 89.5784 14.0565 90.7915 14.0565C92.0045 14.0565 92.9622 14.9397 92.9622 16.2698C92.9622 17.5999 92.0045 18.4831 90.7915 18.4831Z" fill="white"/>
<path d="M99.2413 12.5455V16.589L96.3682 12.5455H95.0913V19.9941H96.7939V15.9506L99.6669 19.9941H100.944V12.5455H99.2413Z" fill="white"/>
<path d="M64.5633 28.4963V28.7836C64.5633 29.7129 64.2334 30.4968 63.5737 31.1352C62.9139 31.7666 62.0449 32.0823 60.9666 32.0823C59.8316 32.0823 58.8952 31.7134 58.1574 30.9756C57.4197 30.2308 57.0508 29.3192 57.0508 28.2409C57.0508 27.1626 57.4161 26.2546 58.1468 25.5168C58.8775 24.7719 59.8032 24.3995 60.9241 24.3995C61.6051 24.3995 62.2294 24.5627 62.7969 24.889C63.3715 25.2153 63.8149 25.6516 64.127 26.1978L63.6269 26.4958C63.3786 26.0276 63.0097 25.6516 62.5202 25.3678C62.0378 25.0841 61.5058 24.9422 60.9241 24.9422C59.9593 24.9422 59.1648 25.2614 58.5405 25.8999C57.9233 26.5312 57.6147 27.3116 57.6147 28.2409C57.6147 29.1702 57.9269 29.9541 58.5511 30.5925C59.1754 31.2239 59.9806 31.5396 60.9666 31.5396C61.8392 31.5396 62.5451 31.3019 63.0842 30.8267C63.6233 30.3514 63.9248 29.7519 63.9887 29.0283H60.8283V28.4963H64.5633Z" fill="white"/>
<path d="M72.1166 30.965C71.3717 31.7099 70.4637 32.0823 69.3925 32.0823C68.3213 32.0823 67.4132 31.7099 66.6684 30.965C65.9235 30.213 65.5511 29.305 65.5511 28.2409C65.5511 27.1768 65.9235 26.2723 66.6684 25.5274C67.4132 24.7755 68.3213 24.3995 69.3925 24.3995C70.4637 24.3995 71.3717 24.7755 72.1166 25.5274C72.8614 26.2723 73.2339 27.1768 73.2339 28.2409C73.2339 29.305 72.8614 30.213 72.1166 30.965ZM67.0621 30.5819C67.7006 31.2204 68.4773 31.5396 69.3925 31.5396C70.3076 31.5396 71.0808 31.2204 71.7122 30.5819C72.3507 29.9364 72.6699 29.156 72.6699 28.2409C72.6699 27.3258 72.3507 26.549 71.7122 25.9105C71.0808 25.265 70.3076 24.9422 69.3925 24.9422C68.4773 24.9422 67.7006 25.265 67.0621 25.9105C66.4307 26.549 66.115 27.3258 66.115 28.2409C66.115 29.156 66.4307 29.9364 67.0621 30.5819Z" fill="white"/>
<path d="M80.8039 30.965C80.059 31.7099 79.151 32.0823 78.0798 32.0823C77.0086 32.0823 76.1006 31.7099 75.3557 30.965C74.6109 30.213 74.2384 29.305 74.2384 28.2409C74.2384 27.1768 74.6109 26.2723 75.3557 25.5274C76.1006 24.7755 77.0086 24.3995 78.0798 24.3995C79.151 24.3995 80.059 24.7755 80.8039 25.5274C81.5488 26.2723 81.9212 27.1768 81.9212 28.2409C81.9212 29.305 81.5488 30.213 80.8039 30.965ZM75.7495 30.5819C76.3879 31.2204 77.1647 31.5396 78.0798 31.5396C78.9949 31.5396 79.7682 31.2204 80.3996 30.5819C81.038 29.9364 81.3572 29.156 81.3572 28.2409C81.3572 27.3258 81.038 26.549 80.3996 25.9105C79.7682 25.265 78.9949 24.9422 78.0798 24.9422C77.1647 24.9422 76.3879 25.265 75.7495 25.9105C75.1181 26.549 74.8024 27.3258 74.8024 28.2409C74.8024 29.156 75.1181 29.9364 75.7495 30.5819Z" fill="white"/>
<path d="M90.4383 28.4963V28.7836C90.4383 29.7129 90.1084 30.4968 89.4487 31.1352C88.789 31.7666 87.92 32.0823 86.8417 32.0823C85.7066 32.0823 84.7702 31.7134 84.0325 30.9756C83.2947 30.2308 82.9258 29.3192 82.9258 28.2409C82.9258 27.1626 83.2911 26.2546 84.0218 25.5168C84.7525 24.7719 85.6783 24.3995 86.7991 24.3995C87.4801 24.3995 88.1044 24.5627 88.6719 24.889C89.2465 25.2153 89.6899 25.6516 90.002 26.1978L89.5019 26.4958C89.2536 26.0276 88.8847 25.6516 88.3953 25.3678C87.9129 25.0841 87.3808 24.9422 86.7991 24.9422C85.8343 24.9422 85.0398 25.2614 84.4155 25.8999C83.7983 26.5312 83.4898 27.3116 83.4898 28.2409C83.4898 29.1702 83.8019 29.9541 84.4262 30.5925C85.0504 31.2239 85.8556 31.5396 86.8417 31.5396C87.7142 31.5396 88.4201 31.3019 88.9592 30.8267C89.4984 30.3514 89.7999 29.7519 89.8637 29.0283H86.7033V28.4963H90.4383Z" fill="white"/>
<path d="M92.4157 31.4332H95.9272V31.9652H91.8517V24.5166H92.4157V31.4332Z" fill="white"/>
<path d="M97.6635 31.4332H101.388V31.9652H97.0995V24.5166H101.335V25.0486H97.6635V27.9429H101.069V28.475H97.6635V31.4332Z" fill="white"/>
<path d="M108.143 24.5166C108.81 24.5166 109.363 24.7365 109.803 25.1763C110.243 25.6161 110.462 26.1659 110.462 26.8256C110.462 27.4854 110.243 28.0352 109.803 28.475C109.363 28.9077 108.81 29.1241 108.143 29.1241H106.174V31.9652H105.61V24.5166H108.143ZM108.143 28.592C108.653 28.592 109.072 28.4253 109.398 28.0919C109.732 27.7585 109.898 27.3364 109.898 26.8256C109.898 26.3078 109.732 25.8821 109.398 25.5487C109.072 25.2153 108.653 25.0486 108.143 25.0486H106.174V28.592H108.143Z" fill="white"/>
<path d="M112.419 31.4332H115.931V31.9652H111.856V24.5166H112.419V31.4332Z" fill="white"/>
<path d="M122.323 31.9652L121.599 30.0711H117.864L117.141 31.9652H116.545L119.439 24.5166H120.035L122.919 31.9652H122.323ZM118.077 29.5391H121.397L119.737 25.2082L118.077 29.5391Z" fill="white"/>
<path d="M128.219 24.5166L125.505 28.9006V31.9652H124.941V28.9006L122.228 24.5166H122.866L125.229 28.3579L127.58 24.5166H128.219Z" fill="white"/>
<defs>
<clipPath id="clip0_302_1925">
<rect width="26.6024" height="26.6024" fill="white" transform="translate(23.2976 9.35449)"/>
</clipPath>
</defs>
</svg>
