<svg width="134" height="47" viewBox="0 0 134 47" fill="none" xmlns="http://www.w3.org/2000/svg">
<rect x="0.319092" y="0.0429688" width="133.012" height="46.5543" rx="23.2771" fill="#080809"/>
<path d="M29.3018 31.9629C26.1344 31.9446 23.5144 25.4789 23.5144 22.186C23.5144 16.8072 27.5495 15.6296 29.1045 15.6296C29.8053 15.6296 30.5537 15.9048 31.2137 16.1484C31.6752 16.3183 32.1526 16.4936 32.4181 16.4936C32.577 16.4936 32.9515 16.3444 33.2821 16.2135C33.9872 15.9329 34.8645 15.584 35.8862 15.584C35.8881 15.584 35.8905 15.584 35.8923 15.584C36.6552 15.584 38.9684 15.7514 40.3591 17.8399L40.6848 18.3294L40.216 18.6832C39.5462 19.1885 38.3242 20.1104 38.3242 21.9364C38.3242 24.0992 39.7082 24.9309 40.3731 25.3309C40.6666 25.5075 40.9704 25.6896 40.9704 26.0878C40.9704 26.3478 38.8953 31.9306 35.882 31.9306C35.1446 31.9306 34.6234 31.709 34.1637 31.5135C33.6985 31.3156 33.2972 31.1452 32.6342 31.1452C32.2981 31.1452 31.8731 31.3041 31.4231 31.4727C30.8082 31.7022 30.1122 31.9629 29.3225 31.9629H29.3018Z" fill="white"/>
<path d="M36.2055 10.6826C36.284 13.5123 34.2603 15.4754 32.239 15.3523C31.9059 13.0941 34.2601 10.6826 36.2055 10.6826Z" fill="white"/>
<path d="M52.2339 17.3347H53.6305L51.7311 11.7482H50.103L48.2036 17.3347H49.6002L49.8796 16.4568H51.9546L52.2339 17.3347ZM50.2626 15.2597L50.9171 13.2087L51.5715 15.2597H50.2626Z" fill="white"/>
<path d="M56.4569 13.3444L55.6269 15.8742L54.7969 13.3444H53.4721L54.9486 17.3347H56.3053L57.7817 13.3444H56.4569Z" fill="white"/>
<path d="M60.9621 13.3444V13.7195C60.6988 13.4162 60.3077 13.2326 59.773 13.2326C58.7275 13.2326 57.8656 14.1504 57.8656 15.3395C57.8656 16.5287 58.7275 17.4465 59.773 17.4465C60.3077 17.4465 60.6988 17.2629 60.9621 16.9596V17.3347H62.1592V13.3444H60.9621ZM60.0124 16.3132C59.4617 16.3132 59.0627 15.9381 59.0627 15.3395C59.0627 14.741 59.4617 14.3659 60.0124 14.3659C60.5631 14.3659 60.9621 14.741 60.9621 15.3395C60.9621 15.9381 60.5631 16.3132 60.0124 16.3132Z" fill="white"/>
<path d="M63.0375 17.3347H64.2346V11.5088H63.0375V17.3347Z" fill="white"/>
<path d="M65.7092 12.9932C66.1002 12.9932 66.4274 12.666 66.4274 12.2749C66.4274 11.8839 66.1002 11.5567 65.7092 11.5567C65.3181 11.5567 64.9909 11.8839 64.9909 12.2749C64.9909 12.666 65.3181 12.9932 65.7092 12.9932ZM65.1106 17.3347H66.3077V13.3444H65.1106V17.3347Z" fill="white"/>
<path d="M69.57 13.2326C69.0352 13.2326 68.6442 13.4162 68.3808 13.7195V11.7482H67.1837V17.3347H68.3808V16.9596C68.6442 17.2629 69.0352 17.4465 69.57 17.4465C70.6154 17.4465 71.4774 16.5287 71.4774 15.3395C71.4774 14.1504 70.6154 13.2326 69.57 13.2326ZM69.3305 16.3132C68.7799 16.3132 68.3808 15.9381 68.3808 15.3395C68.3808 14.741 68.7799 14.3659 69.3305 14.3659C69.8812 14.3659 70.2802 14.741 70.2802 15.3395C70.2802 15.9381 69.8812 16.3132 69.3305 16.3132Z" fill="white"/>
<path d="M72.1561 17.3347H73.3532V11.5088H72.1561V17.3347Z" fill="white"/>
<path d="M75.2986 15.8184H78.1318C78.1637 15.6667 78.1797 15.5071 78.1797 15.3395C78.1797 14.1344 77.3177 13.2326 76.1526 13.2326C74.8916 13.2326 74.0297 14.1504 74.0297 15.3395C74.0297 16.5287 74.8756 17.4465 76.2404 17.4465C76.9985 17.4465 77.5891 17.1671 77.9801 16.6244L77.0225 16.0738C76.8628 16.2493 76.5835 16.377 76.2563 16.377C75.8174 16.377 75.4503 16.2334 75.2986 15.8184ZM75.2747 14.9245C75.3864 14.5175 75.6897 14.2941 76.1446 14.2941C76.5037 14.2941 76.8628 14.4617 76.9905 14.9245H75.2747Z" fill="white"/>
<path d="M82.7692 17.4465C83.9424 17.4465 84.8841 16.5287 84.8841 15.3395C84.8841 14.1504 83.9424 13.2326 82.7692 13.2326C81.596 13.2326 80.6543 14.1504 80.6543 15.3395C80.6543 16.5287 81.596 17.4465 82.7692 17.4465ZM82.7692 16.2813C82.2505 16.2813 81.8514 15.9062 81.8514 15.3395C81.8514 14.7729 82.2505 14.3978 82.7692 14.3978C83.288 14.3978 83.687 14.7729 83.687 15.3395C83.687 15.9062 83.288 16.2813 82.7692 16.2813Z" fill="white"/>
<path d="M87.8996 13.2326C87.3728 13.2326 86.9738 13.4242 86.7583 13.7195V13.3444H85.5612V17.3347H86.7583V15.156C86.7583 14.5894 87.0616 14.334 87.5005 14.334C87.8836 14.334 88.1949 14.5654 88.1949 15.0602V17.3347H89.392V14.8846C89.392 13.8072 88.7056 13.2326 87.8996 13.2326Z" fill="white"/>
<path d="M94.5476 14.4936V13.3444H93.7256V12.2271L92.5285 12.5862V13.3444H91.89V14.4936H92.5285V15.9062C92.5285 17.0235 92.9834 17.4943 94.5476 17.3347V16.2493C94.0209 16.2813 93.7256 16.2493 93.7256 15.9062V14.4936H94.5476Z" fill="white"/>
<path d="M97.5637 13.2326C97.037 13.2326 96.638 13.4242 96.4225 13.7195V11.7482H95.2254V17.3347H96.4225V15.156C96.4225 14.5894 96.7258 14.334 97.1647 14.334C97.5478 14.334 97.859 14.5654 97.859 15.0602V17.3347H99.0561V14.8846C99.0561 13.8072 98.3698 13.2326 97.5637 13.2326Z" fill="white"/>
<path d="M100.948 15.8184H103.781C103.813 15.6667 103.829 15.5071 103.829 15.3395C103.829 14.1344 102.967 13.2326 101.802 13.2326C100.541 13.2326 99.6787 14.1504 99.6787 15.3395C99.6787 16.5287 100.525 17.4465 101.889 17.4465C102.648 17.4465 103.238 17.1671 103.629 16.6244L102.671 16.0738C102.512 16.2493 102.233 16.377 101.905 16.377C101.466 16.377 101.099 16.2334 100.948 15.8184ZM100.924 14.9245C101.035 14.5175 101.339 14.2941 101.794 14.2941C102.153 14.2941 102.512 14.4617 102.64 14.9245H100.924Z" fill="white"/>
<path d="M54.9207 31.9661H57.2484L54.0827 22.6552H51.3693L48.2036 31.9661H50.5313L50.9969 30.5029H54.4552L54.9207 31.9661ZM51.6353 28.5077L52.726 25.0893L53.8167 28.5077H51.6353Z" fill="white"/>
<path d="M61.9529 25.1292C61.0617 25.1292 60.41 25.4352 59.971 25.9406V25.3155H57.9758V34.6263H59.971V31.3409C60.41 31.8463 61.0617 32.1523 61.9529 32.1523C63.6954 32.1523 65.1319 30.6226 65.1319 28.6408C65.1319 26.6589 63.6954 25.1292 61.9529 25.1292ZM61.5539 30.2635C60.6361 30.2635 59.971 29.6383 59.971 28.6408C59.971 27.6432 60.6361 27.018 61.5539 27.018C62.4717 27.018 63.1367 27.6432 63.1367 28.6408C63.1367 29.6383 62.4717 30.2635 61.5539 30.2635Z" fill="white"/>
<path d="M70.2402 25.1292C69.349 25.1292 68.6973 25.4352 68.2583 25.9406V25.3155H66.2631V34.6263H68.2583V31.3409C68.6973 31.8463 69.349 32.1523 70.2402 32.1523C71.9827 32.1523 73.4192 30.6226 73.4192 28.6408C73.4192 26.6589 71.9827 25.1292 70.2402 25.1292ZM69.8412 30.2635C68.9234 30.2635 68.2583 29.6383 68.2583 28.6408C68.2583 27.6432 68.9234 27.018 69.8412 27.018C70.7589 27.018 71.424 27.6432 71.424 28.6408C71.424 29.6383 70.7589 30.2635 69.8412 30.2635Z" fill="white"/>
<path d="M74.5504 31.9661H76.5456V22.2562H74.5504V31.9661Z" fill="white"/>
<path d="M79.788 29.4388H84.5099C84.5631 29.1861 84.5897 28.9201 84.5897 28.6408C84.5897 26.6323 83.1532 25.1292 81.2112 25.1292C79.1096 25.1292 77.6731 26.6589 77.6731 28.6408C77.6731 30.6226 79.083 32.1523 81.3575 32.1523C82.6211 32.1523 83.6054 31.6867 84.2572 30.7822L82.661 29.8645C82.395 30.1571 81.9295 30.3699 81.3841 30.3699C80.6525 30.3699 80.0407 30.1305 79.788 29.4388ZM79.7481 27.9491C79.9343 27.2707 80.4397 26.8983 81.1979 26.8983C81.7965 26.8983 82.395 27.1776 82.6078 27.9491H79.7481Z" fill="white"/>
<path d="M92.372 32.1523C94.3937 32.1523 95.8303 31.0882 95.8303 29.2925C95.8303 27.3239 94.2474 26.8318 92.8375 26.4061C91.3877 25.9672 91.1615 25.6746 91.1615 25.2489C91.1615 24.8765 91.4941 24.544 92.1591 24.544C93.0104 24.544 93.4494 24.9563 93.7686 25.6214L95.5643 24.5706C94.8859 23.2006 93.6888 22.469 92.1591 22.469C90.5497 22.469 89.0334 23.5065 89.0334 25.3021C89.0334 27.0845 90.3901 27.7496 91.7734 28.1353C93.17 28.521 93.7021 28.7472 93.7021 29.3191C93.7021 29.6782 93.4494 30.0773 92.4385 30.0773C91.3877 30.0773 90.8157 29.5585 90.4832 28.7871L88.6476 29.8512C89.1664 31.2212 90.4167 32.1523 92.372 32.1523Z" fill="white"/>
<path d="M100.53 27.2308V25.3155H99.1597V23.4533L97.1646 24.0518V25.3155H96.1005V27.2308H97.1646V29.5851C97.1646 31.4473 97.9227 32.2321 100.53 31.9661V30.1571C99.6519 30.2103 99.1597 30.1571 99.1597 29.5851V27.2308H100.53Z" fill="white"/>
<path d="M104.722 32.1523C106.677 32.1523 108.247 30.6226 108.247 28.6408C108.247 26.6589 106.677 25.1292 104.722 25.1292C102.767 25.1292 101.197 26.6589 101.197 28.6408C101.197 30.6226 102.767 32.1523 104.722 32.1523ZM104.722 30.2103C103.857 30.2103 103.192 29.5851 103.192 28.6408C103.192 27.6964 103.857 27.0712 104.722 27.0712C105.586 27.0712 106.251 27.6964 106.251 28.6408C106.251 29.5851 105.586 30.2103 104.722 30.2103Z" fill="white"/>
<path d="M111.37 26.4993V25.3155H109.375V31.9661H111.37V28.96C111.37 27.6432 112.541 27.3106 113.366 27.4436V25.1824C112.528 25.1824 111.636 25.6081 111.37 26.4993Z" fill="white"/>
<path d="M115.886 29.4388H120.608C120.661 29.1861 120.687 28.9201 120.687 28.6408C120.687 26.6323 119.251 25.1292 117.309 25.1292C115.207 25.1292 113.771 26.6589 113.771 28.6408C113.771 30.6226 115.181 32.1523 117.455 32.1523C118.719 32.1523 119.703 31.6867 120.355 30.7822L118.759 29.8645C118.493 30.1571 118.027 30.3699 117.482 30.3699C116.75 30.3699 116.138 30.1305 115.886 29.4388ZM115.846 27.9491C116.032 27.2707 116.537 26.8983 117.296 26.8983C117.894 26.8983 118.493 27.1776 118.706 27.9491H115.846Z" fill="white"/>
</svg>
