<svg width="83" height="82" viewBox="0 0 83 82" fill="none" xmlns="http://www.w3.org/2000/svg">
<g filter="url(#filter0_d_302_1907)">
<path fill-rule="evenodd" clip-rule="evenodd" d="M41.5099 65.2664C56.5693 65.2664 68.7774 53.0584 68.7774 37.9989C68.7774 22.9395 56.5693 10.7314 41.5099 10.7314C26.4505 10.7314 14.2424 22.9395 14.2424 37.9989C14.2424 53.0584 26.4505 65.2664 41.5099 65.2664Z" fill="white"/>
</g>
<path d="M55.3333 31.3996C54.54 31.7468 53.6947 31.9769 52.8133 32.0886C53.72 31.5486 54.412 30.7 54.7373 29.6771C53.892 30.1799 52.9587 30.535 51.964 30.7332C51.1613 29.8806 50.0173 29.3525 48.7693 29.3525C46.348 29.3525 44.3987 31.3131 44.3987 33.7167C44.3987 34.0625 44.428 34.395 44.5 34.7116C40.864 34.5347 37.6467 32.7962 35.4853 30.148C35.108 30.801 34.8867 31.5486 34.8867 32.3533C34.8867 33.8643 35.6667 35.2037 36.8293 35.9792C36.1267 35.9659 35.4373 35.7624 34.8533 35.4418C34.8533 35.4551 34.8533 35.4724 34.8533 35.4897C34.8533 37.6099 36.3693 39.371 38.3573 39.7767C38.0013 39.8738 37.6133 39.9204 37.2107 39.9204C36.9307 39.9204 36.648 39.9044 36.3827 39.8459C36.9493 41.5737 38.5573 42.844 40.4693 42.8852C38.9813 44.0464 37.092 44.746 35.0467 44.746C34.688 44.746 34.344 44.7301 34 44.6862C35.9373 45.9325 38.2333 46.6441 40.7093 46.6441C48.7573 46.6441 53.1573 39.9935 53.1573 34.2288C53.1573 34.0359 53.1507 33.8497 53.1413 33.6648C54.0093 33.0503 54.7387 32.2828 55.3333 31.3996Z" fill="#080809"/>
<defs>
<filter id="filter0_d_302_1907" x="0.941216" y="0.0904729" width="81.1373" height="81.1376" filterUnits="userSpaceOnUse" color-interpolation-filters="sRGB">
<feFlood flood-opacity="0" result="BackgroundImageFix"/>
<feColorMatrix in="SourceAlpha" type="matrix" values="0 0 0 0 0 0 0 0 0 0 0 0 0 0 0 0 0 0 127 0" result="hardAlpha"/>
<feOffset dy="2.66024"/>
<feGaussianBlur stdDeviation="6.65061"/>
<feColorMatrix type="matrix" values="0 0 0 0 0 0 0 0 0 0 0 0 0 0 0 0 0 0 0.1 0"/>
<feBlend mode="normal" in2="BackgroundImageFix" result="effect1_dropShadow_302_1907"/>
<feBlend mode="normal" in="SourceGraphic" in2="effect1_dropShadow_302_1907" result="shape"/>
</filter>
</defs>
</svg>
